# xmcd
#
# Track frame offsets:
# 150
# 13710
# 30850
# 43270
# 57110
# 76110
# 88845
# 101430
# 113245
# 130505
# 144055
# 157465
# 172880
# 188230
# 203605
# 215300
# 229230
# 245735
# 260755
# 273055
#
# Disc length: 3828 seconds
#
#
# Revision: 0
# Processed by: cddbd v1.5.2PL0 Copyright (c) Steve Scherf et al.
# Submitted via: FreeRIP 2.941 
#
DISCID=080ef214
DTITLE=Bonde do forró and Bonde sertanejo - Encontro dos Bondes
DYEAR=2006
DGENRE=Forró
TTITLE0=Que pescar que nada
TTITLE1=Eu juro
TTITLE2=Na hora h
TTITLE3=Por te amar demais
TTITLE4=Garota de programa
TTITLE5=Agito dos solteiros
TTITLE6=Vire e mexe
TTITLE7=Bobo
TTITLE8=Na hora de amar
TTITLE9=Alguém
TTITLE10=Por um gole a mais
TTITLE11=Foi tudo culpa do amor
TTITLE12=Dois corações e uma história
TTITLE13=Meu anjo azul
TTITLE14=Amor de carnaval
TTITLE15=Amor dividido
TTITLE16=Cada volta é um recomeço
TTITLE17=Vem fazer amor comigo
TTITLE18=Ainda queima a esperança
TTITLE19=Faz mais faz
EXTD=
EXTT0=
EXTT1=
EXTT2=
EXTT3=
EXTT4=
EXTT5=
EXTT6=
EXTT7=
EXTT8=
EXTT9=
EXTT10=
EXTT11=
EXTT12=
EXTT13=
EXTT14=
EXTT15=
EXTT16=
EXTT17=
EXTT18=
EXTT19=
PLAYORDER=
